# xmcd
#
# Track frame offsets: 
#        150
#        12272
#        25217
#        35682
#        46620
#        60342
#        73100
#        85350
#        96285
#        108747
#
# Disc length: 1597 seconds
#
# Revision: 0
# Processed by: cddbd v1.5.2PL0 Copyright (c) Steve Scherf et al.
# Submitted via: ExactAudioCopy v1.1
#
DISCID=7e063b0a
DTITLE=Eddy Arnold - Country Music Cavalcade: Love In The Country (The
DTITLE=Magic Touch of Eddy Arnold)
DYEAR=1997
DGENRE=Country
TTITLE0=Make The World Go Away
TTITLE1=I Really Don't Want To Know
TTITLE2=Let's Fall In Love
TTITLE3=Take Me In Your Arms And Hold Me
TTITLE4=I Only Have Eyes For You
TTITLE5=Then You Can Tell Me Goodbye
TTITLE6=I Want To Go With You
TTITLE7=Bouquet Of Roses
TTITLE8=The Cattle Call
TTITLE9=What A Wonderful World
EXTD=
EXTT0=
EXTT1=
EXTT2=
EXTT3=
EXTT4=
EXTT5=
EXTT6=
EXTT7=
EXTT8=
EXTT9=
PLAYORDER=
